<svg width="30" height="23" viewBox="0 0 30 23" fill="none" xmlns="http://www.w3.org/2000/svg">
<path d="M18.7612 21.9777H25.5522C27.0149 21.9777 28.1642 20.6542 28.1642 19.1101C28.1642 17.5661 27.0149 16.2426 25.5522 16.2426C25.0298 16.2426 24.5075 16.2426 23.9851 16.2426C26.0746 11.5001 25.0298 1.02246 15.6269 1.02246C9.35821 1.02246 6.22388 4.88263 6.22388 12.7133H5.1791C2.8806 12.7133 1 14.8088 1 17.3455C1 19.8822 2.8806 21.9777 5.1791 21.9777H10.403H18.7612Z" stroke="url(#paint0_linear_1_5069)" stroke-width="2" stroke-linecap="round" stroke-linejoin="round"/>
<path d="M15.5732 11.3439L13.8296 11.9264L12.9626 9.33118L14.6792 8.75771C15.035 8.63886 15.4131 8.66339 15.7454 8.82555L15.7455 8.82561C16.0779 8.98756 16.3229 9.26675 16.4384 9.61259C16.5539 9.95837 16.5259 10.3285 16.3576 10.6577L16.3575 10.658C16.1937 10.9793 15.9168 11.2217 15.5732 11.3439ZM11.7486 9.73613L12.0976 9.61955L14.2468 16.0527L13.8978 16.1693C13.663 16.2477 13.5281 16.5019 13.6086 16.7429C13.6891 16.9838 13.9497 17.1059 14.1845 17.0274L15.7013 16.5207L15.8143 16.8589C15.8948 17.0998 16.1554 17.2219 16.3902 17.1435C16.6251 17.065 16.76 16.8108 16.6795 16.5699L16.5665 16.2317L16.8818 16.1263L16.9948 16.4645C17.0753 16.7055 17.3359 16.8275 17.5707 16.7491C17.806 16.6705 17.94 16.4161 17.8596 16.1756L17.7465 15.837C19.0313 15.3811 19.7321 13.9933 19.3026 12.7077C18.9837 11.7532 18.1327 11.1284 17.1837 11.0367C17.4386 10.5204 17.4993 9.91023 17.3033 9.32365C16.9769 8.34668 16.0433 7.74562 15.0548 7.77975L14.911 7.34942L14.911 7.34938C14.8306 7.10899 14.5705 6.98654 14.3354 7.06505C14.1009 7.14342 13.9656 7.39749 14.0461 7.63836L14.1594 7.97742L13.8441 8.08276L13.7308 7.74375C13.7308 7.74374 13.7308 7.74372 13.7308 7.74371C13.6503 7.50281 13.3895 7.38106 13.155 7.45942C12.9204 7.53778 12.7852 7.79186 12.8657 8.03273L12.9789 8.37178L12.5512 8.5147L12.551 8.51414L12.3139 8.59335L11.4619 8.87797C11.2271 8.95642 11.0922 9.21068 11.1727 9.45156C11.2532 9.69246 11.5138 9.81458 11.7486 9.73613ZM18.345 14.197L18.345 14.1971C18.1522 14.5752 17.8225 14.8581 17.4143 14.9945L15.1116 15.7638L14.1164 12.7849L15.833 12.2114C15.8449 12.2074 15.8562 12.2033 15.8644 12.2003L16.4189 12.015C16.8269 11.8787 17.2607 11.9071 17.6422 12.0932L17.6423 12.0932C18.0237 12.2792 18.3051 12.5996 18.4377 12.9966C18.5704 13.3938 18.5381 13.8188 18.345 14.197Z" fill="url(#paint1_linear_1_5069)" stroke="url(#paint2_linear_1_5069)" stroke-width="0.5"/>
<defs>
<linearGradient id="paint0_linear_1_5069" x1="15.9403" y1="-2.27605" x2="16.8527" y2="34.8609" gradientUnits="userSpaceOnUse">
<stop stop-color="#FD749B"/>
<stop offset="1" stop-color="#281AC8"/>
</linearGradient>
<linearGradient id="paint1_linear_1_5069" x1="13.8285" y1="5.88651" x2="20.0862" y2="21.9049" gradientUnits="userSpaceOnUse">
<stop stop-color="#FD749B"/>
<stop offset="1" stop-color="#281AC8"/>
</linearGradient>
<linearGradient id="paint2_linear_1_5069" x1="13.8285" y1="5.88651" x2="20.0862" y2="21.9049" gradientUnits="userSpaceOnUse">
<stop stop-color="#FD749B"/>
<stop offset="1" stop-color="#281AC8"/>
</linearGradient>
</defs>
</svg>
