<svg xmlns="http://www.w3.org/2000/svg" width="18" height="16" fill="none" viewBox="0 0 18 16"><path stroke="url(#paint0_linear_1_67)" stroke-linecap="round" stroke-linejoin="round" d="M13.8 6.60011L17 6.6001L17 2.6001L13.8 2.60011L13.8 6.60011Z"/><path stroke="url(#paint1_linear_1_67)" stroke-linecap="round" stroke-linejoin="round" d="M15.3999 6.75928L15.3999 14.7593"/><path stroke="url(#paint2_linear_1_67)" stroke-linecap="round" stroke-linejoin="round" d="M7.4001 9.79981L10.6001 9.7998L10.6001 5.79981L7.40009 5.79982L7.4001 9.79981Z"/><path stroke="url(#paint3_linear_1_67)" stroke-linecap="round" stroke-linejoin="round" d="M9 10.7593V14.7593"/><path stroke="url(#paint4_linear_1_67)" stroke-linecap="round" stroke-linejoin="round" d="M9 1.15918V5.15917"/><path stroke="url(#paint5_linear_1_67)" stroke-linecap="round" stroke-linejoin="round" d="M15.3999 1.15918V1.95918"/><path stroke="url(#paint6_linear_1_67)" stroke-linecap="round" stroke-linejoin="round" d="M1.0002 13L4.2002 13L4.20019 9.00001L1.00019 9.00001L1.0002 13Z"/><path stroke="url(#paint7_linear_1_67)" stroke-linecap="round" stroke-linejoin="round" d="M2.6001 8.99999L2.6001 1"/><path stroke="url(#paint8_linear_1_67)" stroke-linecap="round" stroke-linejoin="round" d="M2.6001 14.5998V13.7998"/><defs><linearGradient id="paint0_linear_1_67" x1="15.24" x2="14.958" y1="7.23" y2=".148" gradientUnits="userSpaceOnUse"><stop stop-color="#FD749B"/><stop offset="1" stop-color="#281AC8"/></linearGradient><linearGradient id="paint1_linear_1_67" x1="15.557" x2="13.784" y1="11.159" y2="11.166" gradientUnits="userSpaceOnUse"><stop stop-color="#FD749B"/><stop offset="1" stop-color="#281AC8"/></linearGradient><linearGradient id="paint2_linear_1_67" x1="8.84" x2="8.558" y1="10.429" y2="3.348" gradientUnits="userSpaceOnUse"><stop stop-color="#FD749B"/><stop offset="1" stop-color="#281AC8"/></linearGradient><linearGradient id="paint3_linear_1_67" x1="9.157" x2="7.384" y1="12.959" y2="12.973" gradientUnits="userSpaceOnUse"><stop stop-color="#FD749B"/><stop offset="1" stop-color="#281AC8"/></linearGradient><linearGradient id="paint4_linear_1_67" x1="9.157" x2="7.384" y1="3.359" y2="3.373" gradientUnits="userSpaceOnUse"><stop stop-color="#FD749B"/><stop offset="1" stop-color="#281AC8"/></linearGradient><linearGradient id="paint5_linear_1_67" x1="15.557" x2="13.787" y1="1.599" y2="1.67" gradientUnits="userSpaceOnUse"><stop stop-color="#FD749B"/><stop offset="1" stop-color="#281AC8"/></linearGradient><linearGradient id="paint6_linear_1_67" x1="2.44" x2="2.158" y1="13.63" y2="6.548" gradientUnits="userSpaceOnUse"><stop stop-color="#FD749B"/><stop offset="1" stop-color="#281AC8"/></linearGradient><linearGradient id="paint7_linear_1_67" x1="2.758" x2=".984" y1="5.4" y2="5.407" gradientUnits="userSpaceOnUse"><stop stop-color="#FD749B"/><stop offset="1" stop-color="#281AC8"/></linearGradient><linearGradient id="paint8_linear_1_67" x1="2.758" x2=".987" y1="14.24" y2="14.31" gradientUnits="userSpaceOnUse"><stop stop-color="#FD749B"/><stop offset="1" stop-color="#281AC8"/></linearGradient></defs></svg>