<svg xmlns="http://www.w3.org/2000/svg" width="17" height="13" fill="none" viewBox="0 0 17 13"><path stroke="url(#paint0_linear_1_50)" stroke-linecap="round" stroke-linejoin="round" d="M15.7175 8.35877V10.8117C15.7175 11.4862 15.1656 12.0382 14.4911 12.0382H2.22646C1.55191 12.0382 1 11.4862 1 10.8117V2.22646C1 1.55191 1.55191 1 2.22646 1H14.4911C15.1656 1 15.7175 1.55191 15.7175 2.22646V4.67938"/><path stroke="url(#paint1_linear_1_50)" stroke-linecap="round" stroke-linejoin="round" d="M4.06641 1V12.0382"/><path stroke="url(#paint2_linear_1_50)" stroke-linecap="round" stroke-linejoin="round" d="M9.9528 4.67969H16.3304V8.35907H9.9528C8.91031 8.1751 8.3584 7.56187 8.3584 6.51938C8.3584 5.47689 8.91031 4.86366 9.9528 4.67969Z"/><path stroke="url(#paint3_linear_1_50)" stroke-linecap="round" stroke-linejoin="round" d="M10.1982 6.51855H10.8115"/><defs><linearGradient id="paint0_linear_1_50" x1="9.095" x2="9.562" y1="-.737" y2="18.825" gradientUnits="userSpaceOnUse"><stop stop-color="#FD749B"/><stop offset="1" stop-color="#281AC8"/></linearGradient><linearGradient id="paint1_linear_1_50" x1="4.616" x2="10.741" y1="-.737" y2="16.683" gradientUnits="userSpaceOnUse"><stop stop-color="#FD749B"/><stop offset="1" stop-color="#281AC8"/></linearGradient><linearGradient id="paint2_linear_1_50" x1="12.743" x2="12.839" y1="4.101" y2="10.624" gradientUnits="userSpaceOnUse"><stop stop-color="#FD749B"/><stop offset="1" stop-color="#281AC8"/></linearGradient><linearGradient id="paint3_linear_1_50" x1="10.536" x2="10.627" y1="6.361" y2="8.13" gradientUnits="userSpaceOnUse"><stop stop-color="#FD749B"/><stop offset="1" stop-color="#281AC8"/></linearGradient></defs></svg>